# xmcd CD database file
#
# Track frame offsets:
#	150
#	35942
#	96806
#	133649
#	183086
#	222468
#	236831
#	262482
#	283019
#	305918
#	319398
#
# Disc length: 4567 seconds
#
# Revision: 0
# Processed by: cddbd v1.5.2PL0 Copyright (c) Steve Scherf et al.
# Submitted via: CDex 1.70
#
DISCID=b811d50b
DTITLE=Speak In Tones - Subaro
DYEAR=2004
DGENRE=Jazz
TTITLE0=Douson Foly
TTITLE1=Bahia By Night
TTITLE2=Subaro Part 1
TTITLE3=Subaro Part 2
TTITLE4=Umkathi
TTITLE5=Los Indios
TTITLE6=Trilogia Nordestina Part 1
TTITLE7=Trilogia Nordestina Part 2
TTITLE8=Trilogia Nordestina Part 3
TTITLE9=Ilha Do Tartaruga
TTITLE10=Elements
EXTD=YEAR: 2004
EXTT0=
EXTT1=
EXTT2=
EXTT3=
EXTT4=
EXTT5=
EXTT6=
EXTT7=
EXTT8=
EXTT9=
EXTT10=
PLAYORDER=
